#!OML:ASF F:\VICON\USERDATA\INSTALL\rory3\rory3.ASF
:FULLY-SPECIFIED
:DEGREES
254
root -4.33583 17.9062 12.2881 197.763 -68.6274 160.075
lowerback 10.2928 -5.8923 -10.1525
upperback -0.378527 -9.0049 1.72289
thorax -4.31022 -4.22849 8.607
lowerneck 6.29118 -15.4062 -13.5245
upperneck 32.6116 -35.024 14.0774
head 15.909 -17.4305 2.44632
rclavicle -8.39865e-015 1.03368e-014
rhumerus -45.106 -19.9837 -72.2483
rradius 27.3655
rwrist 10.7901
rhand -15.4893 4.90266
rfingers 7.12502
rthumb 10.6928 -24.8052
lclavicle -8.39865e-015 1.03368e-014
lhumerus -21.8823 -2.9595 89.4271
lradius 36.8919
lwrist -2.45277
lhand -15.4863 25.1169
lfingers 7.12502
lthumb 10.6957 54.8247
rfemur -25.3505 -4.89829 17.8686
rtibia 34.1656
rfoot -5.6845 -10.3414
rtoes 16.9506
lfemur 6.91084 -0.239521 -22.3231
ltibia 17.445
lfoot -6.17345 -8.85134
ltoes -23.3437
255
root -4.2293 17.8835 12.3662 198.816 -69.3958 158.962
lowerback 10.4485 -6.06977 -10.35
upperback -0.266526 -9.27671 1.76944
thorax -4.18085 -4.37412 8.7947
lowerneck 5.78554 -15.3133 -13.4685
upperneck 32.8718 -34.7482 13.93
head 16.0275 -17.2533 2.38179
rclavicle 8.38871e-014 -1.74931e-014
rhumerus -44.7276 -20.5681 -71.9565
rradius 27.2006
rwrist 10.7691
rhand -15.744 5.07642
rfingers 7.12502
rthumb 10.4471 -24.644
lclavicle 8.38871e-014 -1.74931e-014
lhumerus -21.4227 -2.96342 89.433
lradius 36.8027
lwrist -2.39813
lhand -16.3588 24.7196
lfingers 7.12502
lthumb 9.85396 54.469
rfemur -25.4415 -4.60314 17.1823
rtibia 34.7734
rfoot -6.97008 -9.62648
rtoes 15.9406
lfemur 6.23999 0.0445426 -22.3811
ltibia 17.7946
lfoot -6.92242 -9.57087
ltoes -22.8756
256
root -4.12478 17.866 12.4466 199.738 -70.1357 157.953
lowerback 10.7062 -6.13141 -10.1613
upperback -0.248349 -9.371 1.60742
thorax -4.34171 -4.41439 8.56353
lowerneck 5.42394 -15.2393 -13.1926
upperneck 33.2509 -34.7023 13.8615
head 16.2131 -17.1702 2.2831
rclavicle 1.62755e-013 9.54166e-015
rhumerus -44.7221 -21.3592 -71.7417
rradius 26.9881
rwrist 10.4147
rhand -15.9466 5.33132
rfingers 7.12502
rthumb 10.2517 -24.3989
lclavicle 1.62755e-013 9.54166e-015
lhumerus -21.2493 -3.29477 89.26
lradius 36.712
lwrist -2.90609
lhand -16.1494 24.3434
lfingers 7.12502
lthumb 10.056 54.0831
rfemur -25.4682 -4.35008 16.5688
rtibia 35.5341
rfoot -8.03911 -8.88882
rtoes 14.6403
lfemur 5.61157 0.150661 -22.4886
ltibia 18.2041
lfoot -7.44539 -9.98585
ltoes -22.2843
257
root -4.0214 17.8524 12.5253 200.811 -70.8096 156.799
lowerback 10.9087 -6.12728 -10.2627
upperback -0.206624 -9.39856 1.62531
thorax -4.38517 -4.42461 8.66605
lowerneck 5.13562 -15.1756 -13.2186
upperneck 33.373 -34.665 14.053
head 16.3928 -17.1032 2.31865
rclavicle 2.07929e-013 6.36111e-015
rhumerus -44.6749 -22.1839 -71.2137
rradius 26.9216
rwrist 10.3058
rhand -15.8669 5.08102
rfingers 7.12502
rthumb 10.3285 -24.6454
lclavicle 2.07929e-013 6.36111e-015
lhumerus -21.0099 -3.55652 89.3933
lradius 36.6427
lwrist -3.35236
lhand -16.7878 24.5142
lfingers 7.12502
lthumb 9.44013 54.2828
rfemur -25.5249 -4.13182 15.9391
rtibia 36.5002
rfoot -8.83612 -8.13187
rtoes 14.0237
lfemur 4.98597 -0.0362262 -22.7542
ltibia 18.633
lfoot -7.82313 -9.88477
ltoes -21.5151
258
root -3.92081 17.8424 12.6021 201.673 -71.4927 155.824
lowerback 11.1625 -6.14309 -10.6148
upperback -0.17596 -9.47624 1.96947
thorax -4.36155 -4.45844 9.26527
lowerneck 4.9017 -15.12 -13.6104
upperneck 33.4193 -34.4014 14.0036
head 16.4739 -16.9855 2.37138
rclavicle 1.33484e-013 -3.97569e-014
rhumerus -44.3366 -22.6493 -70.3726
rradius 26.6216
rwrist 10.4528
rhand -15.9113 4.92791
rfingers 7.12502
rthumb 10.2857 -24.8006
lclavicle 1.33484e-013 -3.97569e-014
lhumerus -20.7011 -3.35053 89.9625
lradius 36.4663
lwrist -3.07246
lhand -17.2611 24.8172
lfingers 7.12502
lthumb 8.98337 54.606
rfemur -25.5514 -3.91479 15.4415
rtibia 37.6888
rfoot -9.41113 -7.44813
rtoes 13.4107
lfemur 4.41757 -0.186232 -22.9542
ltibia 19.0435
lfoot -8.11851 -9.73553
ltoes -20.3768
259
root -3.82015 17.8401 12.6822 202.82 -72.0042 154.659
lowerback 11.3201 -6.12649 -10.8139
upperback -0.187733 -9.49015 2.15803
thorax -4.39448 -4.45788 9.60238
lowerneck 4.68715 -15.0983 -13.7799
upperneck 33.4504 -34.1374 13.8778
head 16.4723 -16.8572 2.3814
rclavicle 7.96133e-014 1.59028e-014
rhumerus -44.0306 -23.2834 -69.6128
rradius 26.1151
rwrist 10.7236
rhand -15.8554 4.95958
rfingers 7.12502
rthumb 10.3396 -24.7662
lclavicle 7.96133e-014 1.59028e-014
lhumerus -20.4324 -3.23516 90.3684
lradius 36.2785
lwrist -2.67038
lhand -16.9591 25.3785
lfingers 7.12502
lthumb 9.27479 55.1545
rfemur -25.733 -3.63048 14.8704
rtibia 39.1085
rfoot -9.82069 -6.73299
rtoes 12.8837
lfemur 3.78045 -0.466929 -23.3577
ltibia 19.3927
lfoot -8.22489 -9.42689
ltoes -19.3461
260
root -3.71852 17.8388 12.7626 204.274 -72.3758 153.249
lowerback 11.3172 -6.05619 -10.8354
upperback -0.179631 -9.39982 2.13339
thorax -4.4063 -4.41193 9.58021
lowerneck 4.55613 -15.126 -13.7728
upperneck 33.3638 -33.9873 13.8942
head 16.4218 -16.7625 2.41215
rclavicle 2.72335e-014 2.70347e-014
rhumerus -44.1121 -24.1623 -69.0477
rradius 26.213
rwrist 10.9659
rhand -15.6422 4.7965
rfingers 7.12502
rthumb 10.5453 -24.919
lclavicle 2.72335e-014 2.70347e-014
lhumerus -20.1923 -3.43606 90.5585
lradius 36.0613
lwrist -2.28499
lhand -18.5245 25.4875
lfingers 7.12502
lthumb 7.76408 55.325
rfemur -25.9973 -3.37325 14.2361
rtibia 40.6921
rfoot -10.2145 -6.07875
rtoes 12.5632
lfemur 3.11905 -0.992572 -23.9553
ltibia 19.6785
lfoot -8.35524 -8.87705
ltoes -19.7373
261
root -3.62267 17.8362 12.8355 205.2 -72.6845 152.235
lowerback 11.325 -5.92684 -10.797
upperback -0.0954568 -9.22316 2.08202
thorax -4.37614 -4.33173 9.48476
lowerneck 4.55289 -15.1548 -13.7409
upperneck 33.2474 -33.91 13.9862
head 16.3636 -16.7068 2.46715
rclavicle -9.38264e-014 8.74653e-015
rhumerus -44.5263 -25.0176 -68.5426
rradius 26.9313
rwrist 11.2153
rhand -15.2986 4.46555
rfingers 7.12502
rthumb 10.8767 -25.2328
lclavicle -9.38264e-014 8.74653e-015
lhumerus -19.9906 -3.33076 90.6687
lradius 35.7501
lwrist -2.32619
lhand -19.9182 25.3952
lfingers 7.12502
lthumb 6.41877 55.278
rfemur -26.0837 -3.09238 13.7626
rtibia 42.4446
rfoot -10.6583 -5.56204
rtoes 13.7658
lfemur 2.66823 -1.23139 -24.3746
ltibia 19.8892
lfoot -8.25893 -8.55753
ltoes -19.1424
262
root -3.53078 17.8442 12.8968 205.258 -73.0544 151.938
lowerback 11.4663 -5.7778 -10.5717
upperback -0.00304807 -9.01024 2.03863
thorax -4.44586 -4.23029 9.31143
lowerneck 4.56654 -15.1359 -13.6431
upperneck 33.3572 -33.8001 13.8885
head 16.3471 -16.6493 2.45155
rclavicle 5.43676e-014 1.27222e-014
rhumerus -44.8283 -25.752 -68.0759
rradius 27.0859
rwrist 11.4532
rhand -14.9232 4.36234
rfingers 7.12502
rthumb 11.2388 -25.3166
lclavicle 5.43676e-014 1.27222e-014
lhumerus -19.9115 -2.94313 90.65
lradius 35.3402
lwrist -2.86351
lhand -20.1469 26.3396
lfingers 7.12502
lthumb 6.19797 56.229
rfemur -25.9525 -2.76602 13.6365
rtibia 44.311
rfoot -10.9277 -5.2768
rtoes 13.4587
lfemur 2.44666 -1.3957 -24.4831
ltibia 20.0772
lfoot -8.07612 -8.26864
ltoes -17.4622
